Coordinates
version=1
nRows=37
nColumns=34
inDegrees=no

Units are S.I. units (second, meters, Newtons, ...)
If the header above contains a line with 'inDegrees', this indicates whether rotational values are in degrees (yes) or radians (no).

endheader
time	pelvis_tilt	pelvis_list	pelvis_rotation	pelvis_tx	pelvis_ty	pelvis_tz	hip_flexion_r	hip_adduction_r	hip_rotation_r	knee_angle_r	ankle_angle_r	subtalar_angle_r	mtp_angle_r	hip_flexion_l	hip_adduction_l	hip_rotation_l	knee_angle_l	ankle_angle_l	subtalar_angle_l	mtp_angle_l	lumbar_extension	lumbar_bending	lumbar_rotation	arm_flex_r	arm_add_r	arm_rot_r	elbow_flex_r	pro_sup_r	arm_flex_l	arm_add_l	arm_rot_l	elbow_flex_l	pro_sup_l
0	0.259478	-0.030638	0.030524	-0.139998	0.882903	-0.27872	0.195291	-0.0436899	-0.233291	0.107641	0.237115	0.246261	-0.0320346	-0.570679	-0.101476	-0.477126	0.264338	0.327824	0.330833	-0.0318266	-0.549781	0.0780117	-0.15665	0.114606	-0.159271	-0.0301843	0.509284	1.06328	0.31497	-0.219128	0.465989	0.473321	1.25122
0.01	0.257285	-0.0390804	0.0385529	-0.12391	0.886216	-0.276486	0.189559	-0.0302545	-0.220344	0.109265	0.176823	0.202305	-0.0320334	-0.572391	-0.131773	-0.497196	0.294885	0.32252	0.358506	-0.031826	-0.545949	0.0936876	-0.154732	0.107885	-0.15969	-0.0337724	0.500677	1.05894	0.310185	-0.213247	0.458563	0.468499	1.25322
0.02	0.257419	-0.0486588	0.0451449	-0.107919	0.88909	-0.274208	0.18321	-0.0155092	-0.20823	0.116568	0.124086	0.159066	-0.0320322	-0.57482	-0.160384	-0.510216	0.326969	0.307136	0.369201	-0.0318253	-0.544063	0.109565	-0.150855	0.101884	-0.160622	-0.0351241	0.490958	1.05537	0.304329	-0.207334	0.450028	0.464125	1.25374
0.03	0.259853	-0.0593316	0.0502807	-0.0920371	0.891605	-0.271886	0.176233	0.000489159	-0.196993	0.129472	0.0790254	0.116781	-0.032031	-0.577916	-0.187231	-0.516213	0.360552	0.281663	0.362927	-0.0318247	-0.544141	0.125601	-0.145011	0.0966407	-0.162065	-0.034248	0.480133	1.05258	0.297446	-0.201393	0.440412	0.460197	1.25278
0.04	0.264477	-0.0709764	0.0539172	-0.0762788	0.893835	-0.269521	0.168628	0.0175626	-0.18677	0.147761	0.0419357	0.0761239	-0.0320298	-0.581494	-0.212122	-0.51529	0.3956	0.246148	0.339802	-0.031824	-0.546146	0.141652	-0.137215	0.0922107	-0.164	-0.0311976	0.468217	1.05064	0.289613	-0.195435	0.429787	0.456697	1.25029
0.05	0.271037	-0.0833491	0.0560265	-0.0606715	0.895851	-0.26712	0.160421	0.0353522	-0.177831	0.170941	0.0132438	0.0382931	-0.0320285	-0.585135	-0.234748	-0.507708	0.432062	0.200851	0.300261	-0.0318234	-0.549959	0.157468	-0.12755	0.0886955	-0.166387	-0.0261046	0.455258	1.04968	0.280985	-0.189488	0.418308	0.453584	1.24625
0.06	0.279082	-0.0960601	0.0566457	-0.0452611	0.897711	-0.264699	0.151683	0.0532869	-0.170566	0.198138	-0.00663437	0.00492273	-0.0320273	-0.588094	-0.254724	-0.493945	0.469887	0.146457	0.245332	-0.0318227	-0.555334	0.172682	-0.116214	0.0862366	-0.169161	-0.0192153	0.441364	1.04983	0.271827	-0.183593	0.406233	0.450804	1.24067
0.07	0.287957	-0.108605	0.0559212	-0.0301027	0.899458	-0.262284	0.142573	0.070606	-0.165435	0.228062	-0.0174913	-0.0221692	-0.0320261	-0.589253	-0.271678	-0.474716	0.509083	0.0843173	0.176905	-0.0318221	-0.561848	0.186844	-0.103569	0.0849912	-0.17223	-0.0109082	0.426729	1.05124	0.262497	-0.177813	0.393935	0.448281	1.23367
0.08	0.296794	-0.120398	0.054129	-0.0152593	0.901117	-0.259909	0.133327	0.0864628	-0.162864	0.259086	-0.0195191	-0.0413602	-0.0320249	-0.587162	-0.28537	-0.450943	0.549794	0.0166162	0.0979261	-0.0318214	-0.568904	0.199494	-0.090135	0.0850951	-0.175487	-0.00167957	0.411645	1.05395	0.253413	-0.172225	0.381882	0.445924	1.2255
0.09	0.304645	-0.130878	0.0516759	-0.00079274	0.902688	-0.25761	0.124229	0.100099	-0.163128	0.289409	-0.0134503	-0.0516593	-0.0320237	-0.580175	-0.295827	-0.423643	0.59238	-0.053597	0.0124112	-0.0318207	-0.575768	0.210272	-0.0765456	0.0866193	-0.17883	0.00791165	0.396499	1.05794	0.244985	-0.166918	0.370583	0.443641	1.21659
0.1	0.310687	-0.139671	0.0490818	0.0132536	0.904171	-0.255427	0.115493	0.11107	-0.166231	0.317294	-0.000624223	-0.0531156	-0.0320225	-0.566688	-0.303454	-0.393748	0.6375	-0.122585	-0.0747726	-0.0318201	-0.581694	0.219057	-0.0634585	0.0895242	-0.18219	0.0173413	0.381745	1.06302	0.237523	-0.161973	0.360514	0.441343	1.20747
0.11	0.314323	-0.146566	0.0468854	0.0268538	0.90556	-0.253388	0.10723	0.119229	-0.171828	0.341247	0.0171272	-0.0468679	-0.0320213	-0.545478	-0.308824	-0.362126	0.685732	-0.186196	-0.158206	-0.0318195	-0.586048	0.225879	-0.0514687	0.0936758	-0.185533	0.0261767	0.367887	1.06889	0.231238	-0.157473	0.352089	0.438962	1.19877
0.12	0.315299	-0.151459	0.0455384	0.040004	0.906857	-0.251514	0.0993736	0.124664	-0.179242	0.360197	0.0377424	-0.0349015	-0.0320202	-0.516039	-0.312418	-0.329536	0.737226	-0.24036	-0.232482	-0.0318188	-0.588458	0.23082	-0.0410166	0.0988688	-0.188846	0.0341243	0.355435	1.07505	0.226249	-0.153502	0.345637	0.436452	1.19111
0.13	0.313801	-0.154313	0.0453325	0.0527179	0.908085	-0.249815	0.0916106	0.127597	-0.187614	0.373641	0.0592828	-0.0195397	-0.032019	-0.478804	-0.314393	-0.296531	0.791465	-0.28178	-0.293084	-0.0318182	-0.588946	0.233937	-0.0323356	0.10486	-0.192145	0.0410883	0.344856	1.08097	0.222576	-0.150143	0.341368	0.4338	1.18504
0.14	0.310364	-0.15513	0.046367	0.0650264	0.909277	-0.248291	0.0834807	0.128291	-0.196101	0.381659	0.0802194	-0.00292768	-0.0320178	-0.435024	-0.314565	-0.263513	0.847319	-0.308468	-0.337001	-0.0318175	-0.587872	0.235228	-0.0254495	0.111407	-0.195467	0.047185	0.336526	1.0861	0.220158	-0.147464	0.339349	0.431038	1.18085
0.15	0.305684	-0.153971	0.0485505	0.0769654	0.910477	-0.246929	0.0745349	0.127014	-0.204015	0.38483	0.0995579	0.01329	-0.0320166	-0.386454	-0.312563	-0.230867	0.903269	-0.319999	-0.362976	-0.0318169	-0.585787	0.234665	-0.0201955	0.118301	-0.198871	0.0527094	0.330707	1.08998	0.218868	-0.145505	0.339504	0.42824	1.1786
0.16	0.300437	-0.15098	0.0516336	0.0885823	0.911718	-0.245707	0.0644629	0.124033	-0.210889	0.384062	0.116824	0.0280935	-0.0320154	-0.335018	-0.30803	-0.199078	0.957661	-0.317465	-0.371449	-0.0318162	-0.583281	0.23224	-0.016265	0.125379	-0.202435	0.0580712	0.327533	1.09231	0.218527	-0.144267	0.341609	0.425522	1.17809
0.17	0.295145	-0.146389	0.0552564	0.099924	0.913023	-0.244594	0.0531559	0.119638	-0.21648	0.380407	0.131958	0.0410584	-0.0320142	-0.282527	-0.300792	-0.168771	1.00893	-0.303173	-0.364274	-0.0318156	-0.580853	0.228017	-0.0132529	0.132534	-0.206244	0.0637173	0.327016	1.09298	0.218916	-0.143706	0.345303	0.423021	1.17898
0.18	0.290146	-0.140516	0.0590014	0.111039	0.914399	-0.243561	0.0407057	0.114152	-0.220731	0.374882	0.145171	0.0522255	-0.032013	-0.230485	-0.290954	-0.140674	1.05575	-0.280158	-0.344279	-0.031815	-0.578837	0.222157	-0.0107138	0.139707	-0.210382	0.0700555	0.329061	1.09211	0.219794	-0.143738	0.350099	0.420888	1.18089
0.19	0.285594	-0.133756	0.0624593	0.121972	0.915837	-0.242576	0.0273418	0.107935	-0.223715	0.368339	0.156796	0.0619319	-0.0320118	-0.180005	-0.278921	-0.115528	1.09713	-0.251638	-0.314758	-0.0318143	-0.577396	0.214916	-0.00821605	0.146879	-0.214917	0.0773878	0.333483	1.09003	0.220917	-0.144246	0.355419	0.419269	1.18345
0.2	0.281491	-0.126543	0.065284	0.132763	0.917315	-0.241615	0.01335	0.101371	-0.225587	0.361389	0.167185	0.0706524	-0.0320107	-0.131813	-0.265338	-0.0939718	1.13244	-0.220521	-0.278997	-0.0318137	-0.576557	0.20662	-0.00538489	0.154057	-0.219888	0.085862	0.340038	1.08725	0.222055	-0.145098	0.360638	0.418294	1.18643
0.21	0.277755	-0.119308	0.0672301	0.143444	0.918804	-0.240653	-0.00100477	0.0948456	-0.226556	0.354394	0.17664	0.0788857	-0.0320095	-0.0863084	-0.251002	-0.0764481	1.16134	-0.189073	-0.239895	-0.0318131	-0.576257	0.197629	-0.00193384	0.161265	-0.225296	0.0954455	0.348437	1.08442	0.223012	-0.146168	0.365148	0.418061	1.18967
0.22	0.274283	-0.112429	0.068171	0.154047	0.92027	-0.239676	-0.0155311	0.0887144	-0.226868	0.347496	0.185393	0.0870969	-0.0320083	-0.0436384	-0.236746	-0.0631465	1.18377	-0.15878	-0.199756	-0.0318124	-0.576392	0.188294	0.00231934	0.168533	-0.2311	0.105929	0.358365	1.08219	0.223641	-0.14735	0.368429	0.418627	1.19313
0.23	0.271013	-0.1062	0.0680932	0.164596	0.921681	-0.238673	-0.0301286	0.0832682	-0.226815	0.34068	0.193614	0.0957034	-0.0320071	-0.00378804	-0.223341	-0.0539951	1.1999	-0.1304	-0.160247	-0.0318118	-0.576857	0.178926	0.0074511	0.175893	-0.237218	0.116962	0.369494	1.08118	0.223855	-0.148568	0.370112	0.419996	1.19685
0.24	0.267934	-0.100834	0.0670861	0.175106	0.92301	-0.23764	-0.0447889	0.0787028	-0.226726	0.333855	0.201441	0.105083	-0.032006	0.0333436	-0.211411	-0.0486991	1.20999	-0.104151	-0.1225	-0.0318112	-0.577567	0.169755	0.0134386	0.18338	-0.24354	0.128113	0.381483	1.08184	0.223626	-0.149781	0.370021	0.422115	1.20085
0.25	0.265066	-0.0964471	0.0653179	0.185586	0.924239	-0.236575	-0.0595743	0.0751114	-0.226958	0.326919	0.208991	0.115579	-0.0320048	0.0678816	-0.201389	-0.0468094	1.21443	-0.0799523	-0.087305	-0.0318106	-0.578486	0.160927	0.0201819	0.191037	-0.249944	0.138958	0.393981	1.0844	0.222989	-0.150981	0.368185	0.424877	1.20513
0.26	0.262465	-0.093059	0.0629985	0.196045	0.92535	-0.235483	-0.074578	0.0724901	-0.227863	0.319817	0.216376	0.127485	-0.0320036	0.0999439	-0.193509	-0.0478056	1.21363	-0.0576498	-0.0553158	-0.0318099	-0.579611	0.152511	0.0275274	0.198912	-0.256308	0.149153	0.406628	1.08884	0.222021	-0.152178	0.364814	0.428127	1.20961
0.27	0.260206	-0.0906158	0.0603484	0.206488	0.926333	-0.234371	-0.0898863	0.0707562	-0.229741	0.312566	0.2237	0.141013	-0.0320025	0.129627	-0.187818	-0.0511735	1.20802	-0.0371676	-0.0272037	-0.0318093	-0.580958	0.144513	0.0352937	0.207063	-0.262529	0.158506	0.419064	1.0949	0.220835	-0.153395	0.360249	0.431678	1.21416
0.28	0.258354	-0.0890162	0.0575731	0.216918	0.927177	-0.233249	-0.105546	0.0697742	-0.232802	0.305263	0.231049	0.156247	-0.0320013	0.157006	-0.184217	-0.0564629	1.19801	-0.0185689	-0.00372264	-0.0318087	-0.582547	0.136898	0.0432939	0.215551	-0.268526	0.166992	0.430941	1.10212	0.219555	-0.154653	0.354892	0.435329	1.21859
0.29	0.256949	-0.0881367	0.0548446	0.227337	0.927873	-0.232128	-0.121541	0.069384	-0.237123	0.298078	0.238484	0.173114	-0.0320001	0.182149	-0.182499	-0.063319	1.18399	-0.00203287	0.0143321	-0.0318081	-0.58438	0.129607	0.0513558	0.224428	-0.274249	0.174747	0.441948	1.10992	0.218302	-0.155961	0.349143	0.438887	1.2227
0.3	0.255984	-0.0878504	0.0522903	0.237748	0.928414	-0.231024	-0.137775	0.069425	-0.242643	0.291233	0.246039	0.191367	-0.031999	0.205128	-0.18239	-0.0714834	1.16633	0.0122252	0.0262528	-0.0318075	-0.586428	0.122578	0.0593354	0.233727	-0.279671	0.182005	0.451829	1.11773	0.217179	-0.157317	0.343343	0.442185	1.22632
0.31	0.255399	-0.0880384	0.049989	0.248155	0.92879	-0.229948	-0.154073	0.0697526	-0.249168	0.284974	0.253721	0.210603	-0.0319978	0.226044	-0.183587	-0.080773	1.14532	0.0240513	0.0315926	-0.0318069	-0.588613	0.11575	0.0671254	0.243448	-0.28478	0.189026	0.460408	1.12502	0.216268	-0.158703	0.337752	0.445099	1.2293
0.32	0.255074	-0.088596	0.0479742	0.258563	0.92899	-0.228914	-0.17019	0.0702452	-0.256407	0.279549	0.26152	0.230306	-0.0319967	0.245028	-0.185774	-0.0910454	1.12123	0.0334378	0.0303382	-0.0318063	-0.590812	0.10907	0.0746569	0.253549	-0.289574	0.196019	0.467602	1.13139	0.215625	-0.160091	0.332535	0.447555	1.23158
0.33	0.254842	-0.0894329	0.0462419	0.268977	0.929005	-0.227931	-0.185831	0.0708034	-0.264022	0.275186	0.269423	0.249918	-0.0319955	0.262249	-0.18864	-0.102161	1.09424	0.0405705	0.0230269	-0.0318057	-0.592867	0.102491	0.081896	0.263946	-0.294046	0.203083	0.473421	1.13662	0.215287	-0.161449	0.327778	0.449525	1.23312
0.34	0.254504	-0.0904689	0.0447618	0.279401	0.928822	-0.22701	-0.200686	0.0713431	-0.27168	0.272067	0.277421	0.268907	-0.0319944	0.277901	-0.191881	-0.113953	1.06451	0.0458279	0.0107741	-0.0318051	-0.594595	0.0959617	0.0888363	0.274511	-0.298187	0.210184	0.477965	1.14063	0.215278	-0.162743	0.323508	0.451016	1.23398
0.35	0.253854	-0.0916274	0.0434878	0.289839	0.928432	-0.226156	-0.214466	0.0717874	-0.279099	0.270321	0.285513	0.286822	-0.0319933	0.29218	-0.195201	-0.126211	1.03211	0.049735	-0.00480538	-0.0318045	-0.595821	0.089426	0.0954896	0.28509	-0.301978	0.217158	0.481402	1.14352	0.215617	-0.163945	0.319717	0.452059	1.23422
0.36	0.252707	-0.0928289	0.0423669	0.300296	0.927826	-0.225375	-0.226937	0.0720587	-0.286072	0.27001	0.293707	0.303334	-0.0319921	0.305259	-0.198313	-0.138682	0.997099	0.0528885	-0.0217699	-0.0318039	-0.596399	0.0828144	0.101876	0.295515	-0.305397	0.223753	0.483942	1.14546	0.216324	-0.165033	0.316389	0.452692	1.23393
